<svg width="136" height="24" viewBox="0 0 136 24" fill="none" xmlns="http://www.w3.org/2000/svg">
<path d="M10.2374 18.4656C9.00909 18.4809 7.7902 18.2531 6.65381 17.7957C5.51741 17.3384 4.48689 16.6609 3.62397 15.8039C2.73388 14.9833 2.02753 13.9903 1.54972 12.888C1.0719 11.7856 0.833062 10.5979 0.848346 9.4003C0.833673 8.20276 1.07279 7.01527 1.55057 5.91299C2.02834 4.81071 2.73437 3.81765 3.62397 2.99666C4.48266 2.13079 5.51128 1.44425 6.64788 0.978378C7.78447 0.51251 9.00551 0.276964 10.2374 0.285927C11.4113 0.270601 12.5765 0.484118 13.6654 0.914068C14.7542 1.34402 15.7451 1.98182 16.5803 2.79041L14.7966 4.56811C13.5752 3.41111 11.9359 2.77546 10.2374 2.80024C9.35637 2.78963 8.48267 2.95877 7.67188 3.29694C6.86109 3.6351 6.13094 4.13489 5.52782 4.76454C4.90102 5.37404 4.40655 6.10157 4.07419 6.90333C3.74183 7.70509 3.57845 8.56448 3.5939 9.42976C3.58655 10.2852 3.75386 11.1334 4.08599 11.9245C4.41812 12.7155 4.90834 13.4335 5.52782 14.0361C6.7687 15.2481 8.44322 15.9376 10.1949 15.9578C11.9467 15.978 13.6373 15.3272 14.9069 14.1441C15.6929 13.3004 16.1751 12.2275 16.2797 11.0896H10.2675V8.57529H18.7747C18.8583 9.08166 18.8919 9.59476 18.875 10.1075C18.9279 11.1686 18.7607 12.2292 18.3835 13.2252C18.0063 14.2212 17.4269 15.1319 16.6804 15.9021C15.8505 16.7491 14.8478 17.4151 13.7376 17.8568C12.6275 18.2985 11.4349 18.5059 10.2374 18.4656ZM30.0175 16.7959C28.8758 17.8686 27.3555 18.4675 25.7739 18.4675C24.1924 18.4675 22.672 17.8686 21.5303 16.7959C20.9621 16.2559 20.5145 15.6059 20.2161 14.8874C19.9177 14.1688 19.7749 13.3973 19.7968 12.6218C19.7755 11.8463 19.9185 11.075 20.2169 10.3565C20.5153 9.63801 20.9626 8.98802 21.5303 8.44761C22.6732 7.37717 24.1932 6.77982 25.7739 6.77982C27.3547 6.77982 28.8747 7.37717 30.0175 8.44761C30.5853 8.98802 31.0326 9.63801 31.3309 10.3565C31.6293 11.075 31.7724 11.8463 31.7511 12.6218C31.7717 13.398 31.6274 14.17 31.3272 14.8886C31.027 15.6072 30.5776 16.2567 30.0075 16.7959H30.0175ZM23.4041 15.1557C23.7078 15.4736 24.0748 15.727 24.4825 15.9002C24.8901 16.0735 25.3296 16.1628 25.7739 16.1628C26.2182 16.1628 26.6578 16.0735 27.0654 15.9002C27.4731 15.727 27.8401 15.4736 28.1438 15.1557C28.4749 14.8203 28.7341 14.4233 28.9062 13.9881C29.0783 13.5529 29.1597 13.0883 29.1457 12.6218C29.1605 12.1537 29.0795 11.6874 28.9074 11.2505C28.7353 10.8136 28.4756 10.4149 28.1438 10.078C27.8361 9.76336 27.4666 9.513 27.0576 9.34197C26.6486 9.17094 26.2086 9.08277 25.7639 9.08277C25.3193 9.08277 24.8792 9.17094 24.4702 9.34197C24.0612 9.513 23.6918 9.76336 23.3841 10.078C23.0522 10.4149 22.7925 10.8136 22.6204 11.2505C22.4483 11.6874 22.3673 12.1536 22.382 12.6218C22.3694 13.089 22.4524 13.554 22.6262 13.9892C22.8001 14.4244 23.0612 14.8211 23.3941 15.1557H23.4041ZM43.064 16.7959C41.9223 17.8686 40.4019 18.4675 38.8204 18.4675C37.2389 18.4675 35.7185 17.8686 34.5768 16.7959C34.0085 16.2558 33.561 15.6059 33.2626 14.8873C32.9642 14.1688 32.8214 13.3973 32.8433 12.6218C32.822 11.8463 32.9651 11.075 33.2634 10.3565C33.5618 9.63803 34.009 8.98804 34.5768 8.44761C35.7185 7.37491 37.2389 6.77602 38.8204 6.77602C40.4019 6.77602 41.9223 7.37491 43.064 8.44761C43.6318 8.98803 44.079 9.63802 44.3774 10.3565C44.6757 11.075 44.8188 11.8463 44.7975 12.6218C44.8194 13.3973 44.6766 14.1688 44.3782 14.8874C44.0798 15.6059 43.6323 16.2559 43.064 16.7959ZM36.4506 15.1557C36.7543 15.4736 37.1213 15.727 37.5289 15.9002C37.9365 16.0734 38.3761 16.1628 38.8204 16.1628C39.2647 16.1628 39.7043 16.0734 40.1119 15.9002C40.5195 15.727 40.8865 15.4736 41.1902 15.1557C41.5213 14.8203 41.7806 14.4233 41.9527 13.9881C42.1248 13.5529 42.2062 13.0883 42.1923 12.6218C42.207 12.1536 42.126 11.6874 41.9538 11.2505C41.7817 10.8136 41.5221 10.4149 41.1902 10.078C40.8825 9.76337 40.513 9.51303 40.1041 9.34201C39.6951 9.17099 39.255 9.08282 38.8104 9.08282C38.3657 9.08282 37.9257 9.17099 37.5167 9.34201C37.1077 9.51303 36.7383 9.76337 36.4306 10.078C36.0987 10.4149 35.8391 10.8136 35.667 11.2505C35.4949 11.6874 35.4138 12.1536 35.4286 12.6218C35.4159 13.089 35.4989 13.554 35.6728 13.9892C35.8466 14.4244 36.1077 14.8211 36.4406 15.1557H36.4506ZM51.6414 23.7103C50.4404 23.7477 49.2626 23.3802 48.3047 22.6692C47.4541 22.0424 46.7842 21.2099 46.3607 20.2531L48.6453 19.32C48.894 19.8919 49.2829 20.3946 49.7776 20.7834C50.3071 21.2018 50.9716 21.4212 51.6514 21.4022C52.0825 21.4279 52.5142 21.3623 52.9171 21.2097C53.32 21.0572 53.6847 20.8213 53.9862 20.5183C54.5899 19.8045 54.888 18.8893 54.8179 17.9647V17.12H54.7277C54.3458 17.5645 53.8636 17.9158 53.3192 18.1459C52.7748 18.3761 52.1832 18.4788 51.5913 18.4459C50.839 18.4481 50.0944 18.2974 49.4045 18.0033C48.7146 17.7091 48.0945 17.278 47.5832 16.737C47.0285 16.2003 46.5906 15.5589 46.296 14.8515C46.0015 14.1442 45.8565 13.3856 45.8697 12.6218C45.8559 11.8534 46.0005 11.0902 46.295 10.378C46.5894 9.66582 47.0276 9.01924 47.5832 8.47708C48.0932 7.93384 48.7129 7.50051 49.4029 7.20462C50.0929 6.90873 50.8382 6.75673 51.5913 6.7583C52.2287 6.75721 52.8584 6.89475 53.435 7.161C53.9339 7.3745 54.3787 7.69306 54.7378 8.09404H54.8279V7.161H57.313V17.6209C57.3784 18.4484 57.2708 19.2802 56.9969 20.0655C56.7229 20.8507 56.2883 21.573 55.7197 22.1879C55.1781 22.6958 54.5382 23.0921 53.8378 23.3536C53.1373 23.6151 52.3905 23.7363 51.6414 23.7103ZM51.8218 16.1673C52.2497 16.1765 52.6744 16.0933 53.0658 15.9236C53.4571 15.7539 53.8056 15.5018 54.0864 15.1852C54.7047 14.4907 55.0306 13.592 54.9982 12.6709C55.0354 11.7342 54.7096 10.8185 54.0864 10.1075C53.806 9.79035 53.4577 9.53788 53.0662 9.36809C52.6747 9.19831 52.2498 9.1154 51.8218 9.12529C51.3822 9.11645 50.9458 9.19946 50.5415 9.36881C50.1372 9.53816 49.7743 9.78996 49.4771 10.1075C48.8142 10.7929 48.4542 11.707 48.475 12.6512C48.4649 13.1144 48.5481 13.5749 48.7201 14.0064C48.892 14.4379 49.1493 14.8318 49.4771 15.1655C49.7729 15.4861 50.1351 15.7412 50.5394 15.914C50.9436 16.0867 51.3808 16.1731 51.8218 16.1673ZM61.7319 0.94397V18.112H59.1166V0.94397H61.7319ZM68.9065 18.4656C68.1232 18.4853 67.3443 18.3463 66.6184 18.0573C65.8925 17.7683 65.2353 17.3356 64.6879 16.7861C64.1325 16.2406 63.696 15.5903 63.4049 14.8744C63.1137 14.1585 62.9741 13.3921 62.9944 12.6218C62.9648 11.8495 63.0942 11.0793 63.3748 10.3571C63.6554 9.63487 64.0815 8.97545 64.6278 8.41815C65.1425 7.88627 65.765 7.46564 66.4552 7.1832C67.1454 6.90075 67.8882 6.76272 68.636 6.77795C69.3236 6.77084 70.0055 6.90117 70.64 7.161C71.2116 7.38712 71.7324 7.72078 72.1731 8.14314C72.5515 8.5012 72.8876 8.89984 73.1751 9.33155C73.4077 9.69604 73.6056 10.0807 73.7663 10.4807L74.0369 11.1485L66.0207 14.3798C66.2631 14.9258 66.6686 15.387 67.1838 15.7025C67.6989 16.0181 68.2995 16.1733 68.9065 16.1477C69.497 16.1493 70.0779 16.0008 70.5924 15.7168C71.107 15.4328 71.5376 15.0229 71.8424 14.5271L73.8465 15.853C73.3351 16.5702 72.6806 17.1783 71.9226 17.6406C71.0212 18.1988 69.9725 18.4856 68.9065 18.4656ZM65.5597 12.445L70.8905 10.2744C70.7263 9.8917 70.4326 9.57609 70.0588 9.38066C69.6403 9.14902 69.1666 9.03039 68.686 9.0369C67.8705 9.0576 67.0963 9.3929 66.5316 9.96995C66.1937 10.2869 65.9314 10.6731 65.7634 11.1009C65.5953 11.5288 65.5258 11.9877 65.5597 12.445Z" fill="#CCC9C9"/>
<path d="M87.7352 18.465C86.6229 18.4838 85.5183 18.2822 84.4875 17.8721C83.4568 17.4621 82.5212 16.8521 81.7369 16.0788C80.9527 15.3055 80.3359 14.3849 79.9237 13.3722C79.5115 12.3594 79.3123 11.2755 79.3382 10.1855C79.3123 9.09542 79.5115 8.0115 79.9237 6.99878C80.3359 5.98605 80.9527 5.06541 81.7369 4.29213C82.5212 3.51885 83.4568 2.90888 84.4875 2.49883C85.5183 2.08878 86.6229 1.88711 87.7352 1.90592C88.8609 1.87142 89.9801 2.08671 91.009 2.5357C92.038 2.98469 92.9501 3.65577 93.6773 4.49882L92.2343 5.87382C91.7005 5.21567 91.0157 4.69031 90.2356 4.34045C89.4556 3.99059 88.6023 3.82612 87.7452 3.8604C86.9201 3.84218 86.0997 3.98766 85.3335 4.28809C84.5672 4.58852 83.8708 5.0377 83.2861 5.60864C82.6783 6.20778 82.2034 6.92363 81.8913 7.71126C81.5792 8.49888 81.4366 9.34126 81.4725 10.1855C81.4366 11.0297 81.5792 11.8721 81.8913 12.6597C82.2034 13.4473 82.6783 14.1632 83.2861 14.7623C83.8708 15.3332 84.5672 15.7824 85.3335 16.0828C86.0997 16.3833 86.9201 16.5287 87.7452 16.5105C88.7028 16.521 89.6505 16.3199 90.5179 15.922C91.3853 15.5241 92.1501 14.9397 92.7553 14.2123L94.1983 15.6266C93.4428 16.5121 92.4943 17.2202 91.4227 17.6989C90.2675 18.2217 89.0074 18.4835 87.7352 18.465Z" fill="#CCC9C9"/>
<path d="M98.0743 18.1118H96V2.25H98.0743V18.1118Z" fill="#CCC9C9"/>
<path d="M101.461 8.56579C102.548 7.50782 104.018 6.91406 105.55 6.91406C107.081 6.91406 108.551 7.50782 109.638 8.56579C110.169 9.11582 110.585 9.76344 110.86 10.4714C111.135 11.1793 111.265 11.9336 111.241 12.6908C111.265 13.4481 111.135 14.2023 110.86 14.9103C110.585 15.6182 110.169 16.2658 109.638 16.8159C108.551 17.8738 107.081 18.4676 105.55 18.4676C104.018 18.4676 102.548 17.8738 101.461 16.8159C100.93 16.2658 100.515 15.6182 100.239 14.9103C99.9643 14.2023 99.8347 13.4481 99.8582 12.6908C99.8347 11.9336 99.9643 11.1793 100.239 10.4714C100.515 9.76344 100.93 9.11582 101.461 8.56579ZM103.004 15.5391C103.331 15.8776 103.725 16.1473 104.162 16.3315C104.599 16.5158 105.069 16.6109 105.545 16.6109C106.02 16.6109 106.491 16.5158 106.927 16.3315C107.364 16.1473 107.758 15.8776 108.085 15.5391C108.447 15.1578 108.729 14.7096 108.913 14.2206C109.097 13.7316 109.18 13.2116 109.157 12.6908C109.18 12.1701 109.097 11.6501 108.913 11.1611C108.729 10.6721 108.447 10.2239 108.085 9.84259C107.758 9.50405 107.364 9.2344 106.927 9.05011C106.491 8.86582 106.02 8.77078 105.545 8.77078C105.069 8.77078 104.599 8.86582 104.162 9.05011C103.725 9.2344 103.331 9.50405 103.004 9.84259C102.642 10.2239 102.36 10.6721 102.176 11.1611C101.992 11.6501 101.909 12.1701 101.932 12.6908C101.912 13.2106 101.997 13.7292 102.183 14.2164C102.369 14.7037 102.651 15.1499 103.015 15.5293L103.004 15.5391Z" fill="#CCC9C9"/>
<path d="M122.737 18.1125H120.733V16.6098H120.673C120.317 17.1805 119.812 17.6482 119.21 17.9652C118.586 18.3197 117.877 18.5061 117.156 18.5053C116.57 18.5446 115.983 18.4537 115.438 18.2394C114.894 18.0252 114.405 17.693 114.01 17.2678C113.251 16.3268 112.869 15.1459 112.937 13.9482V7.26953H115.012V13.575C115.012 15.5982 115.924 16.6098 117.747 16.6098C118.153 16.6222 118.555 16.5395 118.921 16.3687C119.287 16.1978 119.606 15.9438 119.852 15.6276C120.389 14.9598 120.676 14.1309 120.663 13.2803V7.26953H122.737L122.737 18.1125Z" fill="#CCC9C9"/>
<path d="M129.779 18.4653C129.075 18.4676 128.379 18.3204 127.739 18.0339C127.099 17.7473 126.53 17.3283 126.071 16.8055C125.032 15.6809 124.476 14.2068 124.518 12.6903C124.476 11.1737 125.032 9.69969 126.071 8.57506C126.53 8.05229 127.099 7.63321 127.739 7.34667C128.379 7.06013 129.075 6.91294 129.779 6.91523C130.567 6.90302 131.346 7.0854 132.043 7.44559C132.656 7.74792 133.175 8.20578 133.546 8.7715H133.636L133.546 7.2688V2.25H135.62V18.1118H133.616V16.6091H133.526C133.155 17.1748 132.636 17.6327 132.023 17.935C131.332 18.2919 130.56 18.4742 129.779 18.4653ZM130.119 16.6091C130.588 16.6158 131.053 16.5246 131.483 16.3418C131.913 16.1589 132.299 15.8884 132.614 15.5483C133.319 14.762 133.679 13.7351 133.616 12.6903C133.679 11.6455 133.319 10.6186 132.614 9.83222C132.297 9.49028 131.91 9.2171 131.479 9.03016C131.047 8.84323 130.581 8.74668 130.109 8.74668C129.638 8.74668 129.171 8.84323 128.74 9.03016C128.308 9.2171 127.922 9.49028 127.604 9.83222C127.254 10.219 126.985 10.6697 126.813 11.1585C126.642 11.6472 126.57 12.1644 126.602 12.6805C126.57 13.1965 126.642 13.7137 126.813 14.2025C126.985 14.6912 127.254 15.1419 127.604 15.5287C127.92 15.8749 128.308 16.1505 128.742 16.3369C129.176 16.5233 129.646 16.6161 130.119 16.6091Z" fill="#CCC9C9"/>
</svg>
