<svg width="20" height="17" viewBox="0 0 20 17" fill="none" xmlns="http://www.w3.org/2000/svg">
<path d="M1.25 9.70996H16.08L11.54 15.01C11.43 15.13 11.35 15.2699 11.3 15.4199C11.26 15.5799 11.24 15.7399 11.25 15.8999C11.28 16.2199 11.44 16.51 11.7 16.72C11.96 16.93 12.28 17.02 12.61 16.99C12.95 16.97 13.25 16.8101 13.46 16.5601L19.71 9.28003C19.75 9.22003 19.79 9.16009 19.83 9.09009C19.83 9.03009 19.89 8.99994 19.91 8.93994C19.97 8.79994 20 8.65 20 8.5C20 8.35 19.97 8.20006 19.91 8.06006C19.91 8.00006 19.85 7.9699 19.83 7.8999C19.79 7.8399 19.75 7.77997 19.71 7.71997L13.46 0.439941C13.34 0.299941 13.2 0.190107 13.03 0.110107C12.87 0.0401074 12.68 0 12.5 0C12.21 0 11.92 0.100029 11.7 0.280029C11.57 0.380029 11.47 0.509902 11.39 0.649902C11.32 0.789902 11.27 0.940098 11.25 1.1001C11.24 1.2601 11.26 1.42007 11.3 1.57007C11.35 1.73007 11.43 1.86999 11.54 1.98999L16.08 7.29004H1.25C0.92 7.29004 0.599995 7.40989 0.369995 7.63989C0.129995 7.86989 0 8.18 0 8.5C0 8.82 0.129995 9.13011 0.369995 9.36011C0.599995 9.59011 0.92 9.70996 1.25 9.70996Z" fill="white"/>
</svg>
