<svg width="20" height="17" viewBox="0 0 20 17" fill="none" xmlns="http://www.w3.org/2000/svg">
<path d="M18.75 9.70996H3.92004L8.45996 15.01C8.56996 15.13 8.64995 15.2699 8.69995 15.4199C8.73995 15.5799 8.76 15.7399 8.75 15.8999C8.72 16.2199 8.56005 16.51 8.30005 16.72C8.04005 16.93 7.72001 17.02 7.39001 16.99C7.05001 16.97 6.75004 16.8101 6.54004 16.5601L0.290039 9.28003C0.250039 9.22003 0.210044 9.16009 0.170044 9.09009C0.170044 9.03009 0.109966 8.99994 0.0899658 8.93994C0.0299658 8.79994 0 8.65 0 8.5C0 8.35 0.0299658 8.20006 0.0899658 8.06006C0.0899658 8.00006 0.150044 7.9699 0.170044 7.8999C0.210044 7.8399 0.250039 7.77997 0.290039 7.71997L6.54004 0.439941C6.66004 0.299941 6.79997 0.190107 6.96997 0.110107C7.12997 0.0401074 7.32 0 7.5 0C7.79 0 8.08005 0.100029 8.30005 0.280029C8.43005 0.380029 8.52999 0.509902 8.60999 0.649902C8.67999 0.789902 8.73 0.940098 8.75 1.1001C8.76 1.2601 8.73995 1.42007 8.69995 1.57007C8.64995 1.73007 8.56996 1.86999 8.45996 1.98999L3.92004 7.29004H18.75C19.08 7.29004 19.4 7.40989 19.63 7.63989C19.87 7.86989 20 8.18 20 8.5C20 8.82 19.87 9.13011 19.63 9.36011C19.4 9.59011 19.08 9.70996 18.75 9.70996Z" fill="white"/>
</svg>
